<?xml version="1.0" encoding="UTF-8"?>
<!DOCTYPE svg PUBLIC "-//W3C//DTD SVG 1.1//EN" "http://www.w3.org/Graphics/SVG/1.1/DTD/svg11.dtd">
<svg xmlns="http://www.w3.org/2000/svg" version="1.1" width="1024px" height="1024px" style="shape-rendering:geometricPrecision; text-rendering:geometricPrecision; image-rendering:optimizeQuality; fill-rule:evenodd; clip-rule:evenodd" xmlns:xlink="http://www.w3.org/1999/xlink">
<g><path style="opacity:0.996" fill="#ea4335" d="M 243.5,420.5 C 189.523,379.185 135.857,337.518 82.5,295.5C 140.987,183.298 229.487,104.632 348,59.5C 432.42,30.213 518.587,23.713 606.5,40C 693.576,57.6997 769.243,96.6997 833.5,157C 787.833,202.667 742.167,248.333 696.5,294C 695.5,294.667 694.5,294.667 693.5,294C 642.378,246.775 581.711,222.942 511.5,222.5C 407.283,227.337 327.117,273.337 271,360.5C 259.938,379.624 250.771,399.624 243.5,420.5 Z"/></g>
<g><path style="opacity:0.996" fill="#fabb05" d="M 82.5,295.5 C 135.857,337.518 189.523,379.185 243.5,420.5C 223.5,481.168 223.5,541.835 243.5,602.5C 189.523,643.815 135.857,685.482 82.5,727.5C 31.7513,624.612 18.5846,516.945 43,404.5C 51.5465,366.35 64.7132,330.016 82.5,295.5 Z"/></g>
<g><path style="opacity:0.998" fill="#4285f3" d="M 829.5,876.5 C 777.833,835.833 726.167,795.167 674.5,754.5C 725.318,718.61 756.985,669.944 769.5,608.5C 683.503,607.5 597.503,607.167 511.5,607.5C 511.5,546.167 511.5,484.833 511.5,423.5C 662.5,423.5 813.5,423.5 964.5,423.5C 979.017,509.532 974.517,594.532 951,678.5C 928.206,755.703 887.706,821.703 829.5,876.5 Z"/></g>
<g><path style="opacity:0.997" fill="#34a853" d="M 243.5,602.5 C 274.71,690.744 334.043,751.577 421.5,785C 487.78,805.861 553.78,804.861 619.5,782C 638.723,774.388 657.056,765.222 674.5,754.5C 726.167,795.167 777.833,835.833 829.5,876.5C 762.129,936.339 683.462,972.839 593.5,986C 437.233,1008.45 300.566,967.451 183.5,863C 141.888,823.583 108.222,778.416 82.5,727.5C 135.857,685.482 189.523,643.815 243.5,602.5 Z"/></g>
</svg>
